<?xml version="1.0" encoding="UTF-8" standalone="no"?>
<!-- Created with Inkscape (http://www.inkscape.org/) -->

<svg
   xmlns:dc="http://purl.org/dc/elements/1.1/"
   xmlns:cc="http://creativecommons.org/ns#"
   xmlns:rdf="http://www.w3.org/1999/02/22-rdf-syntax-ns#"
   xmlns:svg="http://www.w3.org/2000/svg"
   xmlns="http://www.w3.org/2000/svg"
   xmlns:sodipodi="http://sodipodi.sourceforge.net/DTD/sodipodi-0.dtd"
   xmlns:inkscape="http://www.inkscape.org/namespaces/inkscape"
   width="60pt"
   height="60pt"
   viewBox="0 0 21.166665 21.166666"
   version="1.1"
   id="svg8"
   inkscape:version="0.92.2 (5c3e80d, 2017-08-06)"
   sodipodi:docname="wheel.svg">
  <defs
     id="defs2" />
  <sodipodi:namedview
     id="base"
     pagecolor="#ffffff"
     bordercolor="#666666"
     borderopacity="1.0"
     inkscape:pageopacity="0"
     inkscape:pageshadow="2"
     inkscape:zoom="5.6"
     inkscape:cx="3.4809567"
     inkscape:cy="-1.679027"
     inkscape:document-units="mm"
     inkscape:current-layer="layer1"
     showgrid="false"
     units="pt"
     inkscape:window-width="2139"
     inkscape:window-height="1636"
     inkscape:window-x="698"
     inkscape:window-y="285"
     inkscape:window-maximized="0"
     inkscape:pagecheckerboard="true" />
  <metadata
     id="metadata5">
    <rdf:RDF>
      <cc:Work
         rdf:about="">
        <dc:format>image/svg+xml</dc:format>
        <dc:type
           rdf:resource="http://purl.org/dc/dcmitype/StillImage" />
        <dc:title></dc:title>
      </cc:Work>
    </rdf:RDF>
  </metadata>
  <g
     inkscape:label="Layer 1"
     inkscape:groupmode="layer"
     id="layer1"
     transform="translate(0,-275.83331)">
    <g
       id="g816"
       transform="translate(3.5276917,-3.5278667)">
      <path
         inkscape:connector-curvature="0"
         id="path3709"
         d="M 7.0552542,279.36118 A 10.583204,10.583204 0 0 0 -3.5276918,289.94412 10.583204,10.583204 0 0 0 7.0552542,300.52784 10.583204,10.583204 0 0 0 17.638975,289.94412 10.583204,10.583204 0 0 0 7.0552542,279.36118 Z m 0,2.1169 a 8.4665632,8.4665632 0 0 1 8.4668218,8.46604 8.4665632,8.4665632 0 0 1 -8.4668218,8.46683 8.4665632,8.4665632 0 0 1 -8.4660467,-8.46683 8.4665632,8.4665632 0 0 1 8.4660467,-8.46604 z"
         style="stroke-width:2.69390631;image-rendering:optimizeSpeed" />
      <path
         transform="matrix(1.6978016,0,0,1.7010826,-4.9098716,-203.27478)"
         inkscape:transform-center-y="0.075449504"
         inkscape:transform-center-x="-0.11262654"
         d="m 8.1676233,295.94165 -1.505877,-5.1714 -4.9662399,2.08506 4.4529477,-3.03022 -3.5176585,-4.07886 4.2579501,3.29861 2.7922073,-4.60592 -1.8213898,5.06888 5.2433378,1.23223 -5.3836311,-0.16587 z"
         inkscape:randomized="0"
         inkscape:rounded="0"
         inkscape:flatsided="false"
         sodipodi:arg2="2.0157669"
         sodipodi:arg1="1.3874484"
         sodipodi:r2="0.91491842"
         sodipodi:r1="6.0994563"
         sodipodi:cy="289.94443"
         sodipodi:cx="7.0555558"
         sodipodi:sides="5"
         id="path4582"
         style="fill:#000000;stroke-width:0.8896541"
         sodipodi:type="star" />
    </g>
  </g>
</svg>
